<?xml version="1.0" encoding="UTF-8"?>
<!DOCTYPE svg PUBLIC "-//W3C//DTD SVG 1.1//EN" "http://www.w3.org/Graphics/SVG/1.1/DTD/svg11.dtd">
<!-- Creator: CorelDRAW -->
<svg xmlns="http://www.w3.org/2000/svg" xml:space="preserve" width="3000px" height="1000px" version="1.1" style="shape-rendering:geometricPrecision; text-rendering:geometricPrecision; image-rendering:optimizeQuality; fill-rule:evenodd; clip-rule:evenodd"
viewBox="0 0 3000 1000"
 xmlns:xlink="http://www.w3.org/1999/xlink">
 <defs>
  <!-- <style type="text/css">
    .fil8 {fill:#0B0B0B}
    .fil1 {fill:#2676BA}
    .fil0 {fill:#373C4F}
    .fil4 {fill:#4C4C4C}
    .fil7 {fill:#927255}
    .fil6 {fill:#F15B24}
    .fil3 {fill:#F37C28}
    .fil5 {fill:#F6911D}
    .fil2 {fill:#FDB713}
    .fil9 {fill:black;fill-rule:nonzero}
  </style> -->

<style type="text/css">
    .fil8 {fill:#ffffff}
    .fil1 {fill:#2676BA}
    .fil0 {fill:#373C4F}
    .fil4 {fill:#4C4C4C}
    .fil7 {fill:#927255}
    .fil6 {fill:#F15B24}
    .fil3 {fill:#F37C28}
    .fil5 {fill:#F6911D}
    .fil2 {fill:#FDB713}
    .fil9 {fill:#ffff;fill-rule:nonzero}
  </style>

 </defs>
 <g id="Layer_x0020_1">
  <metadata id="CorelCorpID_0Corel-Layer"/>
  <g id="_105553370000448">
   <path class="fil0" d="M457.77 417.14c0,13.13 2.23,20.85 2.53,32.45l1.92 21.6c0.17,3.34 0.91,7.21 1.33,10.76 0.85,7.26 1.06,14.65 2.14,22.02l3.56 44.13c0.24,3.12 0.89,6.73 1.29,10.15l2.93 33.31c0.51,3.7 0.67,6.53 1.2,10.25 0.53,3.61 0.38,8.09 0.79,11.29 0.9,7.09 1.4,14.19 2.04,21.49 0.62,7.08 1.12,14.55 2.01,21.52l2.16 21.99c0.5,3.5 0.29,7.79 0.7,10.75l3.38 32.87c0.22,4.52 0.22,6.53 0.75,10.69 0.41,3.21 0.26,7.68 0.78,11.3l2.28 21.88 45.77 0c2.06,-8.84 6.21,-68.89 8.15,-84.68 0.53,-4.37 0.36,-7.99 0.84,-12.51 0.38,-3.52 0.99,-7.83 1.56,-11.8 1.07,-7.47 1.92,-26.55 3.26,-36.79l14.7 -158.25c1.48,-13.82 1.58,-28.77 3.89,-42.53 0.49,-2.88 0.7,-2.43 2.84,-4.15 1.35,-1.09 2.22,-1.93 3.45,-2.91 2.58,-2.05 17.24,-13.38 17.89,-15.81l-158.29 0c0.66,2.47 0.38,1.4 2.24,2.84 1.49,1.14 1.75,1.49 2.99,2.73l15.54 13.08c1.77,1.51 1.08,1.72 3.38,2.33z"/>
   <path class="fil1" d="M737.48 516.97l0 268.97c-5.74,3.04 -11.48,5.78 -17.16,8.9l-8.35 4.37c-2.97,1.63 -5.82,3.04 -8.81,4.53l-51.7 27.14c-3.16,1.58 -5.31,2.7 -8.33,4.38l-41.1 21.21c-1.98,1.19 -1.14,-0.03 -1.86,1.96l16.94 -4.68c2.23,-0.61 4.35,-1.07 6.08,-1.55l17.43 -4.82c2.2,-0.72 4.13,-1.02 6.04,-1.59 3.95,-1.17 7.35,-1.88 11.59,-3.03l122.12 -33.64c2.3,-0.54 4.79,-0.35 4.79,-2.83l0 -304.58c-3.45,0 -3.4,0.64 -6.12,1.5l-35.57 11.49c-2.02,0.6 -4.39,1.51 -5.99,2.27z"/>
   <path class="fil1" d="M240.36 808.19c3.2,0.27 23.92,6.51 28.66,7.58l28.92 7.96c2.03,0.57 3.5,0.83 5.58,1.4l40.86 11.28c2.16,0.7 3.3,0.83 5.55,1.44l45.9 12.59c2.46,0.61 3.35,1.1 5.94,1.68 2.09,0.48 3.17,0.79 5.63,1.38 2.36,0.55 3.08,1.19 5.87,1.75 2.79,0.56 3.52,1.19 5.88,1.75 2.38,0.56 4.17,1.26 6.2,1.43 -1.49,-2.24 -1.16,-1.51 -3.67,-2.69 -1.38,-0.64 -2.47,-1.2 -4.26,-2.09l-47.57 -24.91c-1.05,-0.58 -1.08,-0.66 -2.04,-1.14l-45.97 -23.97c-5.49,-2.94 -11.61,-5.54 -17.15,-8.91 -3,-1.83 -5.8,-2.71 -8.83,-4.52l-4.51 -2.49c-2.83,-1.41 -1.95,-1.55 -4.58,-1.77l0 -269.6c-6.46,-1.51 -42.3,-14.54 -46.41,-14.63l0 306.48z"/>
   <path class="fil2" d="M577.29 838.71l3.99 -2.36c11.23,-7.49 25.54,-15.65 37.2,-23.19 15.88,-10.27 34.49,-21 49.71,-31.04 8.71,-5.74 20.42,-12.31 28.51,-17.89 2.08,-1.43 12.18,-6.29 12.18,-8.81l0 -314.11c0,-3.63 -2.52,-0.4 -3.8,0.62l-41.11 33.3c-3.39,2.53 -2.14,5.9 -2.14,14.4l-0.04 258.11c-0.47,2.65 -12.83,14.02 -15.66,17.4l-12.16 13.28c-4.57,5.02 -12.78,12.27 -16.27,16.79l-18.12 19.38c-0.68,0.74 -0.18,0.19 -0.96,0.95l-7.28 7.35c-2.6,2.82 -13.42,13.47 -14.05,15.82z"/>
   <path class="fil2" d="M447.6 838.71c-0.23,-2.76 -4.04,-5.49 -7.46,-9.06 -1.48,-1.55 -2.62,-2.62 -4.14,-4.13l-29.03 -30.73c-0.1,-0.09 -0.23,-0.23 -0.31,-0.32l-31.05 -32.53c-1.43,-1.44 -2.83,-2.64 -4.1,-4.17 -10.37,-12.4 -7.82,-2.68 -7.82,-33.51 0,-79.68 -0.64,-160.96 0,-240.36 0.07,-7.75 0.44,-5.84 -5.53,-11l-8.74 -7.15c-0.1,-0.08 -0.25,-0.2 -0.35,-0.29l-22.79 -18.52c-1.55,-1.16 -3.27,-2.29 -4.7,-3.57 -2.35,-2.11 -1.93,-2.38 -4.93,-3.97l0 298.21c0,5.26 -0.32,11.46 -0.05,16.59 0.2,4.07 4.17,5.42 10.79,9.54l7.87 4.85c1.71,1.21 3.28,2.11 5.03,3.24 1.97,1.27 3.16,1.7 5.14,3.12 1.87,1.34 3.18,1.79 5.17,3.1l58.26 36.46c1.06,0.65 1.68,0.82 2.86,1.59l4.99 3.28c3.5,2.29 6.61,4.16 10.18,6.35l20.71 12.98z"/>
   <path class="fil3" d="M812.5 853.34l-69.54 10.56c-9.61,2.16 -19.67,2.91 -29.29,4.41 -2.63,0.41 -3.47,0.7 -5.79,1.2 -2.25,0.47 -3.58,0.2 -5.84,0.52 -7.08,1.01 -14.69,2.81 -23.58,3.76 -1.73,0.18 -4.12,0.76 -5.86,1.12l-28.85 4.21c-2.39,0.43 -3.39,0.78 -5.78,1.21 -3.29,0.6 -6.02,0.02 -10.42,1.66 -0.14,0.05 -0.33,0.14 -0.45,0.19l231.8 1.04 0 -284.22 -46.4 0 0 254.34z"/>
   <path class="fil3" d="M306.48 882.72l90.54 -1.04c-1.29,-0.34 -1.35,-0.25 -2.71,-0.47l-64.06 -9.68c-1.97,-0.31 -3.43,-0.71 -5.27,-1.09 -2.19,-0.45 -3.6,-0.38 -6.26,-0.73l-40.47 -6.58c-2.34,-0.42 -4.04,-0.12 -6.37,-0.62l-12.08 -1.91c-9.84,-2.07 -25.9,-3.58 -34.65,-5.4 -2.71,-0.56 -9.32,-1.93 -12.12,-1.5 -1.79,-2.75 -0.86,-28.37 -0.86,-31.52 0,-73.85 -0.58,-149.1 0.02,-222.61l-45.55 0 0 283.13 139.84 0.02z"/>
   <path class="fil2" d="M427.89 209.22c0,3.61 -0.77,3.38 7.83,1.3l3.9 -1.7c2.69,1.18 1.72,1.03 6.46,-0.05 5.37,-1.21 2.19,0 5.64,-1.87 0.63,-0.34 0.77,-0.47 1.86,-0.77l9.92 -2.22c2.78,0.18 1.92,0.55 2.05,0.59 1.43,0.47 -1.06,0.44 1.65,0.43 2.41,-0.01 2.82,-1.23 2.82,-1.24 1.57,-1.44 0.11,-1.58 9.37,-3.57 4.29,-0.91 16.88,-4.54 20.69,-4.54 1.18,-2.01 0.2,-2.09 2.6,-3.26l0.9 -0.35c2.15,-0.76 4.4,-0.63 5.69,1.47 6.8,-5.35 13.87,-13.31 19.55,-19.35 6.86,-7.28 16.2,-23.75 18.97,-33.17 3.39,-11.58 4.2,-22.17 0.99,-33.53 -4.2,-14.82 -15.97,-27.88 -27.97,-36.88 -1.77,-1.33 -6.42,-4.83 -8.37,-4.99 5.58,8.33 6.1,12.61 3.45,23.15l-3.63 9.73c-0.06,0.14 -0.13,0.31 -0.19,0.44 -0.07,0.13 -0.15,0.29 -0.22,0.42l-5.67 9.59c-1.04,1.49 -1.78,2.42 -2.89,4.1l-10.32 12.57c-0.12,0.14 -0.45,0.56 -0.58,0.7 -0.08,0.1 -0.84,0.97 -0.88,1.02l-17.04 16.65c-1.71,1.63 -2.23,2.05 -4.17,3.47l-22.52 22.62c-6.8,9.21 -6.75,8.36 -12.06,17.81 -1.99,3.54 -3.18,5.97 -4.74,9.89l-2.98 8.51c-0.66,2.7 -1.26,-0.42 -0.11,3.03z"/>
   <path class="fil2" d="M509.26 228.93c0.02,2.93 4.58,2.49 9.08,4.81l8.05 1.72c3.62,0.9 0.5,1.48 6.14,2.33 7.01,1.07 -0.53,0.84 5.98,0.43l0.45 1.12c0.13,0.37 -0.09,0.38 0.49,1.35 2.36,0.05 5.29,0.59 6.97,1.31 -1.4,1.4 1.03,0.95 -2.75,1.13 -2.42,0.11 0.51,-0.42 -2.9,-0.53 2.49,0.02 4.76,2.09 7.08,2.16 8.96,0.29 22.61,4.94 22.62,4.94 0.27,0.03 0.03,-0.01 1.29,-0.23 1.4,-0.24 0.98,-0.15 2.35,-0.19 1.12,-0.03 0.61,0.43 2.47,-1.95 9.69,-12.38 17.33,-22.52 21.43,-39 2.03,-8.13 1.77,-11.67 1.55,-20.75 -0.23,-9.67 -7.43,-23.06 -13.56,-30.32 -1.72,-2.04 -3.5,-3.42 -5.34,-5.46l-3.77 -3.86c-2.9,-2.65 -11.53,-9.68 -14.86,-10.57 0.52,1.93 5.03,6.51 4.38,14.51 -0.82,10.15 -4.86,19.57 -10.56,27.64l-26.24 30.34 -19.84 17.64c-0.84,1.32 -0.48,0.15 -0.51,1.43z"/>
   <path class="fil4" d="M496.55 803.41c0,8.44 -10,37.33 -15.87,48.04 -0.73,1.33 -0.9,1.46 -1.29,3.16l25.97 56.05c0.59,1.57 5.86,16.45 5.42,18.06l-1.51 2.6c3.88,-3.07 2.49,-6.14 2.49,-15.67l0 -54.04c-2.07,-2.05 -4.55,-2.04 -4.81,-5.84 -0.51,-7.4 10.73,-8.46 11.27,-1.12 0.14,1.86 -0.37,3.4 -1.28,4.45 -0.37,0.43 -0.95,0.81 -1.42,1.14 -0.16,0.11 -0.66,0.41 -0.82,0.51l-1.25 0.86c0.05,12.57 0.55,56.87 -0.37,66.12 1.59,-0.66 1.19,0.5 2.42,-4.58 0.63,-2.6 0.95,-2.37 1.74,-4.61 4.83,-13.79 10.58,-29.75 17.31,-42.45 0.88,-1.67 1.57,-2.83 2.41,-4.58 2.47,-5.13 6.33,-13.28 9.18,-17.53 -0.68,-1.01 -0.93,-1.09 -1.58,-2.25 -7.55,-13.59 -11.28,-27.27 -14.6,-41.98 -0.68,-3.02 -1.56,-4.11 -1.62,-7.7l-24.8 0.26c-0.94,-0.01 -3.02,-0.12 -3.82,-0.05l-3.17 1.15z"/>
   <path class="fil5" d="M427.89 209.22c-1.64,1.3 -0.72,0.14 -1.34,2.49 -0.01,0.03 -0.38,2.7 -0.39,2.78 -2.06,13.9 -0.44,24.93 5.27,37.61l6.92 11.52c4.06,5.17 9.89,12.99 15.61,16.82 -1.47,-6.31 -3.64,-6.58 0.46,-17.98 0.84,-2.33 0.51,-1.32 1.38,-3.07 3.75,-7.48 9.39,-17.35 14.63,-23.52 0.09,-0.1 0.21,-0.24 0.3,-0.34 0.5,-0.6 0.71,-0.86 1.13,-1.41 5.29,-6.94 9.18,-10.89 14.67,-17.12 1.79,-2.02 2.43,-3.07 4.46,-5.08 3.24,-3.21 5.99,-5.99 9.22,-9.22 2.77,-2.77 6.9,-6.42 9.06,-9.26 -1.29,-2.1 -3.54,-2.23 -5.69,-1.47l-0.9 0.35c-2.4,1.17 -1.42,1.25 -2.6,3.26 -3.81,0 -16.4,3.63 -20.69,4.54 -9.26,1.99 -7.8,2.13 -9.37,3.57 0,0.01 -0.41,1.23 -2.82,1.24 -2.71,0.01 -0.22,0.04 -1.65,-0.43 -0.13,-0.04 0.73,-0.41 -2.05,-0.59l-9.92 2.22c-1.09,0.3 -1.23,0.43 -1.86,0.77 -3.45,1.87 -0.27,0.66 -5.64,1.87 -4.74,1.08 -3.77,1.23 -6.46,0.05l-3.9 1.7c-8.6,2.08 -7.83,2.31 -7.83,-1.3z"/>
   <path class="fil3" d="M476.84 282.34l-0.83 1.91c2.44,-0.06 5.02,-0.09 7.23,0l9.03 2.41c6.87,2.45 7.29,1.51 8.06,3.31 -3.21,0.08 -1.73,-0.56 -3.11,1.24l2.35 1.44c0.12,0.07 0.27,0.18 0.39,0.25 0.88,0.5 2.73,1.14 3.62,1.46 2.14,0.76 4.83,1.57 7.26,2.26 3,0.86 4.66,1.73 7.3,2.28 3.25,0.67 3.5,-0.25 5.07,1.17 0.09,0.07 0.21,0.23 0.3,0.31l1.01 1.06c6.09,-9.25 16.85,-18.11 24.33,-26.51 1.65,-1.85 0.78,-0.42 1.74,-2.76l-1.91 0.01c-0.27,-0.45 -0.29,-0.8 -0.45,-1.41 -0.95,-3.68 1.3,2.47 -0.23,-1.11l-11.05 -2.95c-3.34,-1.24 -3.69,-0.44 -6.09,-0.25 -0.28,-2.61 0.2,-1.62 -2.01,-2.41 -2.65,-0.95 -7.81,-2.47 -10.05,-1.4l-0.79 -1.28c-0.5,-0.41 -0.65,-0.48 -1.52,-0.79 -1.88,-0.67 -2.13,-0.39 -3.97,-1.19 -7.74,-3.38 -9.11,-2.26 -11.55,-3.68 -3.73,-2.18 -2.81,-0.57 -6.62,-1.72 -4.29,-1.3 -1.85,-1.46 -4.91,0.32l0.75 -2.49c-1.48,0.93 -0.71,0.27 -1.74,1.4 -1.25,1.37 -0.07,-0.08 -1.05,1.57l-5.75 10.74c-1.5,3.6 -6.15,12.81 -4.81,16.81z"/>
   <path class="fil5" d="M490.19 251.82l-0.75 2.49c3.06,-1.78 0.62,-1.62 4.91,-0.32 3.81,1.15 2.89,-0.46 6.62,1.72 2.44,1.42 3.81,0.3 11.55,3.68 1.84,0.8 2.09,0.52 3.97,1.19 0.87,0.31 1.02,0.38 1.52,0.79l0.79 1.28c2.24,-1.07 7.4,0.45 10.05,1.4 2.21,0.79 1.73,-0.2 2.01,2.41 2.4,-0.19 2.75,-0.99 6.09,0.25l11.05 2.95c1.53,3.58 -0.72,-2.57 0.23,1.11 0.16,0.61 0.18,0.96 0.45,1.41l1.91 -0.01c1.27,-0.03 0.12,0.36 1.42,-0.51l19.08 -18.39c2.29,-2.22 2.13,-1.8 3.02,-3.99 -1.37,0.04 -0.95,-0.05 -2.35,0.19 -1.26,0.22 -1.02,0.26 -1.29,0.23 -0.01,0 -13.66,-4.65 -22.62,-4.94 -2.32,-0.07 -4.59,-2.14 -7.08,-2.16 3.41,0.11 0.48,0.64 2.9,0.53 3.78,-0.18 1.35,0.27 2.75,-1.13 -1.68,-0.72 -4.61,-1.26 -6.97,-1.31 -0.58,-0.97 -0.36,-0.98 -0.49,-1.35l-0.45 -1.12c-6.51,0.41 1.03,0.64 -5.98,-0.43 -5.64,-0.85 -2.52,-1.43 -6.14,-2.33l-8.05 -1.72c-4.5,-2.32 -9.06,-1.88 -9.08,-4.81 -3.86,1.57 -8.19,7.78 -10.71,10.9 -1.65,2.06 -3.02,3.16 -4.64,5.54 -0.87,1.28 -0.98,1.78 -2.03,3.08 -0.62,0.77 -0.77,0.7 -1.17,1.37 -1.52,2.52 -0.62,0.33 -0.52,2z"/>
   <path class="fil6" d="M524.52 301.44l-1.01 -1.06c-0.09,-0.08 -0.21,-0.24 -0.3,-0.31 -1.57,-1.42 -1.82,-0.5 -5.07,-1.17 -2.64,-0.55 -4.3,-1.42 -7.3,-2.28 -2.43,-0.69 -5.12,-1.5 -7.26,-2.26 -0.89,-0.32 -2.74,-0.96 -3.62,-1.46 -0.12,-0.07 -0.27,-0.18 -0.39,-0.25l-2.35 -1.44c1.38,-1.8 -0.1,-1.16 3.11,-1.24 -0.77,-1.8 -1.19,-0.86 -8.06,-3.31l-9.03 -2.41c-2.21,-0.09 -4.79,-0.06 -7.23,0l0.83 -1.91c-3.01,2.39 -1.41,5.55 -2.17,10.55 -1.81,11.81 3.69,29.18 10.53,38.96 0.94,1.36 1.51,2.62 2.44,3.92 2.93,4.09 11.71,14.13 15.27,16.52 -0.25,-2.96 -0.35,-1.01 -0.98,-3.48 -3.33,-13.21 10.61,-31.76 18.32,-42.12 1.5,-2.01 3.11,-3.55 4.27,-5.25z"/>
   <path class="fil0" d="M496.55 803.41l3.17 -1.15c0.8,-0.07 2.88,0.04 3.82,0.05l24.8 -0.26c4.66,1.2 7.16,-0.81 7.58,-4.71 0.21,-1.96 0.31,-10.86 0.11,-12.74 -0.31,-2.94 -0.73,-2.53 -3.81,-2.55l-38.9 0.02c-3.54,-0.04 -4.13,-0.6 -4.46,2.53 -0.42,3.97 -1.08,14.03 2.46,16.74 2.12,1.63 3.59,0.53 5.23,2.07z"/>
   <path class="fil7" d="M306.48 882.72l-139.84 -0.02 0 -283.13 45.55 0c-0.6,73.51 -0.02,148.76 -0.02,222.61 0,3.15 -0.93,28.77 0.86,31.52l0 -254.7 -47.05 0 0 284.22 136.72 0.04c2.17,-0.01 2.3,0.2 3.78,-0.54z"/>
   <path class="fil8" d="M509.27 931.32c0,2.37 -0.14,2.37 1.45,3.85 0.09,0.09 0.27,0.21 0.35,0.29 0.09,0.07 0.29,0.21 0.37,0.27 0.07,0.06 0.25,0.17 0.37,0.27 1.97,-0.46 1.84,-0.81 3.81,-1.27 0,-6.6 0.62,-3.44 -2.54,-7 0.92,-9.25 0.42,-53.55 0.37,-66.12l1.25 -0.86c0.16,-0.1 0.66,-0.4 0.82,-0.51 0.47,-0.33 1.05,-0.71 1.42,-1.14 0.91,-1.05 1.42,-2.59 1.28,-4.45 -0.54,-7.34 -11.78,-6.28 -11.27,1.12 0.26,3.8 2.74,3.79 4.81,5.84l0 54.04c0,9.53 1.39,12.6 -2.49,15.67z"/>
  </g>
  <path class="fil9" d="M993.3 494.61l0 170.2 95.74 0 0 28.83 -129.39 0 0 -199.03 33.65 0zm165.34 0l0 199.03 -33.65 0 0 -199.03 33.65 0zm76.31 99.59c0,12.27 1.56,23.13 4.72,32.58 3.12,9.49 7.35,17.43 12.76,23.91 5.36,6.47 11.59,11.39 18.75,14.75 7.16,3.36 14.71,5.07 22.69,5.07 6.58,0 12.96,-1.61 19.24,-4.82 6.28,-3.27 11.98,-7.55 17.04,-12.91 5.12,-5.4 9.35,-11.59 12.81,-18.65 3.41,-7.01 5.55,-14.32 6.43,-21.96l-58.83 0 0 -28.25 91.9 0 0 109.72 -25.23 0 -3.99 -23.67c-3.85,3.99 -8.04,7.74 -12.67,11.2 -4.62,3.46 -9.44,6.48 -14.46,9.06 -5.02,2.58 -10.27,4.63 -15.68,6.14 -5.41,1.51 -10.81,2.29 -16.12,2.29 -14.27,0 -27.17,-2.63 -38.62,-7.94 -11.44,-5.31 -21.23,-12.62 -29.31,-21.92 -8.09,-9.3 -14.27,-20.35 -18.61,-33.06 -4.33,-12.76 -6.52,-26.59 -6.52,-41.54 0,-8.67 0.92,-17.29 2.82,-25.81 1.85,-8.58 4.58,-16.76 8.13,-24.5 3.56,-7.74 7.94,-14.9 13.2,-21.52 5.21,-6.63 11.25,-12.37 18.02,-17.2 6.82,-4.87 14.37,-8.66 22.64,-11.39 8.24,-2.78 17.24,-4.14 26.94,-4.14 12.36,0 23.42,1.75 33.11,5.26 9.69,3.51 18.21,8.38 25.52,14.61 7.35,6.23 13.49,13.63 18.5,22.21 5.02,8.52 8.97,17.92 11.89,28.09l-34.92 0c-5.06,-14.17 -12.03,-24.78 -20.84,-31.75 -8.87,-6.96 -19.97,-10.47 -33.26,-10.47 -8.53,0 -16.37,2 -23.48,6.04 -7.06,4.04 -13.19,9.6 -18.31,16.56 -5.11,6.96 -9.11,15.1 -11.98,24.4 -2.87,9.3 -4.28,19.14 -4.28,29.61zm228.39 -99.59l0 82.06 90.05 0 0 -82.06 33.65 0 0 199.03 -33.65 0 0 -89.02 -90.05 0 0 89.02 -33.65 0 0 -199.03 33.65 0zm320.25 0l0 28.39 -62.92 0 0 170.64 -33.65 0 0 -170.64 -63.07 0 0 -28.39 159.64 0zm70.61 0l0 82.06 90.05 0 0 -82.06 33.65 0 0 199.03 -33.65 0 0 -89.02 -90.05 0 0 89.02 -33.65 0 0 -199.03 33.65 0zm346.93 99c0,15.44 -2.04,29.56 -6.13,42.47 -4.09,12.9 -10.04,23.96 -17.88,33.21 -7.84,9.3 -17.48,16.51 -28.92,21.62 -11.4,5.16 -24.45,7.75 -39.21,7.75 -14.75,0 -27.8,-2.59 -39.2,-7.8 -11.34,-5.21 -20.94,-12.41 -28.78,-21.67 -7.84,-9.3 -13.83,-20.35 -17.87,-33.26 -4.04,-12.9 -6.04,-27.03 -6.04,-42.46 0,-15.39 2,-29.47 6.04,-42.23 4.04,-12.71 10.03,-23.66 17.87,-32.82 7.84,-9.11 17.44,-16.22 28.78,-21.23 11.4,-5.02 24.45,-7.55 39.2,-7.55 14.76,0 27.81,2.53 39.21,7.6 11.44,5.11 21.08,12.22 28.92,21.33 7.84,9.15 13.79,20.11 17.88,32.82 4.09,12.76 6.13,26.83 6.13,42.22zm-33.65 -0.14c0,-12.08 -1.51,-22.84 -4.58,-32.24 -3.06,-9.4 -7.2,-17.34 -12.46,-23.77 -5.31,-6.38 -11.5,-11.3 -18.56,-14.66 -7.06,-3.36 -14.7,-5.06 -22.89,-5.06 -8.27,0 -15.97,1.7 -23.03,5.06 -7.11,3.36 -13.25,8.28 -18.41,14.66 -5.21,6.43 -9.3,14.37 -12.27,23.77 -3.02,9.4 -4.53,20.16 -4.53,32.24 0,12.07 1.51,22.88 4.53,32.38 2.97,9.5 7.06,17.58 12.27,24.2 5.16,6.63 11.3,11.69 18.41,15.15 7.06,3.46 14.76,5.16 23.03,5.16 8.19,0 15.83,-1.7 22.89,-5.16 7.06,-3.46 13.25,-8.52 18.56,-15.15 5.26,-6.62 9.4,-14.7 12.46,-24.2 3.07,-9.5 4.58,-20.31 4.58,-32.38zm106.85 -98.86l0 131.82c0,6.97 1.12,13.15 3.41,18.61 2.29,5.5 5.35,10.13 9.15,13.88 3.8,3.75 8.18,6.57 13.2,8.52 5.01,1.95 10.23,2.92 15.63,2.92 5.8,0 11.4,-0.88 16.9,-2.68 5.45,-1.8 10.32,-4.53 14.61,-8.13 4.29,-3.65 7.69,-8.18 10.27,-13.59 2.59,-5.4 3.85,-11.73 3.85,-18.94l0 -132.41 33.7 0 0 131c0,11.88 -2.24,22.35 -6.67,31.46 -4.43,9.05 -10.28,16.7 -17.58,22.89 -7.35,6.18 -15.78,10.81 -25.28,13.97 -9.49,3.17 -19.33,4.73 -29.51,4.73 -9.69,0 -19.09,-1.56 -28.19,-4.68 -9.11,-3.07 -17.15,-7.69 -24.11,-13.83 -7.01,-6.14 -12.61,-13.83 -16.75,-23.03 -4.19,-9.21 -6.28,-19.92 -6.28,-32.1l0 -130.41 33.65 0zm192.75 129.39c0.48,6.87 1.9,13.1 4.19,18.8 2.33,5.65 5.4,10.52 9.2,14.61 3.85,4.09 8.33,7.25 13.44,9.49 5.11,2.24 10.76,3.36 16.95,3.36 5.4,0 10.61,-0.58 15.63,-1.75 5.02,-1.12 9.4,-2.97 13.2,-5.55 3.8,-2.58 6.86,-5.89 9.15,-10.03 2.29,-4.14 3.41,-9.21 3.41,-15.2 0,-5.4 -1.65,-9.98 -4.92,-13.63 -3.26,-3.65 -7.59,-6.87 -12.9,-9.65 -5.31,-2.77 -11.4,-5.21 -18.26,-7.4 -6.87,-2.19 -13.83,-4.48 -20.9,-6.86 -7.11,-2.39 -14.07,-5.07 -20.94,-8.04 -6.86,-3.02 -12.95,-6.67 -18.26,-11 -5.31,-4.34 -9.64,-9.55 -12.9,-15.64 -3.27,-6.08 -4.92,-13.39 -4.92,-21.96 0,-8.77 1.7,-16.51 5.16,-23.18 3.41,-6.72 8.23,-12.37 14.46,-16.9 6.24,-4.58 13.64,-8.03 22.26,-10.37 8.62,-2.29 18.07,-3.46 28.34,-3.46 13.69,0 25.03,2 34.14,5.99 9.11,3.99 16.41,9.16 21.91,15.44 5.51,6.33 9.5,13.34 11.98,21.08 2.49,7.7 3.95,15.25 4.44,22.65l-34.39 0c-0.58,-6.38 -1.94,-11.88 -4.09,-16.51 -2.14,-4.67 -4.92,-8.52 -8.32,-11.59 -3.46,-3.02 -7.36,-5.26 -11.69,-6.77 -4.39,-1.46 -9.06,-2.19 -13.98,-2.19 -4.48,0 -8.91,0.44 -13.29,1.36 -4.39,0.88 -8.28,2.34 -11.69,4.39 -3.46,2.04 -6.18,4.72 -8.28,7.98 -2.09,3.27 -3.12,7.31 -3.12,12.08 0,5.5 1.66,10.18 4.92,13.93 3.27,3.75 7.6,7.01 12.91,9.83 5.31,2.78 11.39,5.31 18.26,7.55 6.87,2.24 13.83,4.58 20.94,7.02 7.16,2.38 14.12,5.06 20.99,8.03 6.87,2.97 12.95,6.58 18.26,10.86 5.31,4.29 9.64,9.4 12.91,15.39 3.26,5.99 4.92,13.2 4.92,21.57 0,10.18 -1.86,19.04 -5.61,26.64 -3.75,7.65 -9,13.98 -15.72,18.99 -6.68,5.02 -14.61,8.82 -23.82,11.4 -9.2,2.58 -19.24,3.9 -30.19,3.9 -9.79,0 -19.29,-1.71 -28.54,-5.17 -9.2,-3.41 -17.48,-8.37 -24.74,-14.85 -7.25,-6.48 -13.15,-14.27 -17.68,-23.47 -4.53,-9.16 -6.91,-19.53 -7.2,-31.17l34.38 0zm297.16 -129.39l0 28.39 -106.85 0 0 53.81 100.32 0 0 28.54 -100.32 0 0 59.46 111.43 0 0 28.83 -145.08 0 0 -199.03 140.5 0z"/>
  <path class="fil9" d="M963.18 863.69l44.22 0 0 -11.37 -29.41 0 0 -60.18 -14.81 0 0 71.55zm154.31 0.94c9.39,0 15.75,-2.5 19.5,-5.01l0 -8.97c-4.59,1.98 -9.7,3.55 -16.37,3.55 -9.81,0 -15.44,-3.44 -16.38,-13.87l34.63 0 0 -5.01c0,-17.32 -6.88,-26.6 -23.26,-26.6 -14.6,0 -25.35,9.39 -25.35,27.23l0 1.35c0,17.32 9.08,27.33 27.23,27.33zm-2.19 -46.21c6.67,0 10.11,3.55 10.11,13.04l-21.17 0c0.73,-10.22 6.16,-13.04 11.06,-13.04zm123.64 46.21c6.78,0 11.37,-2.19 13.77,-5.32l0.62 0 1.05 4.38 11.16 0 0 -38.7c0,-11.68 -7.41,-16.27 -20.13,-16.27 -7.51,0 -13.56,1.04 -18.88,2.92l0 9.6c3.55,-1.04 8.34,-1.67 13.66,-1.67 8.87,0 11.79,1.56 11.79,8.24l0 3.65 -11.89 1.46c-10.95,1.56 -18.05,6.15 -18.05,16.38 0,10.43 6.99,15.33 16.9,15.33zm4.28 -9.28c-4.49,0 -7.72,-2.09 -7.72,-7.1 0,-5 2.5,-6.88 7.61,-7.4l8.87 -0.94 0 12.52c-1.67,1.66 -5.32,2.92 -8.76,2.92zm130.21 9.28c6.78,0 11.79,-1.98 15.23,-5.22l0.52 0 1.15 4.28 11.68 0 0 -76.25 -13.66 0 0 24.1c-2.4,-1.36 -6.26,-2.92 -12.41,-2.92 -13.98,0 -24.2,8.24 -24.2,28.26l0 1.36c0,19.4 10.84,26.39 21.69,26.39zm5.01 -10.43c-7.62,0 -12.62,-3.55 -12.62,-16.59l0 -1.87c0,-12.83 4.69,-16.8 12.62,-16.8 4.38,0 8.13,0.94 9.91,2.3l0 29.52c-1.88,1.56 -5.22,3.44 -9.91,3.44zm112.69 9.49l13.77 0 0 -54.03 -13.77 0 0 54.03zm-0.1 -62.16l13.97 0 0 -11.69 -13.97 0 0 11.69zm102.99 62.16l13.66 0 0 -41.3c3.03,-1.26 7.3,-2.72 11.06,-2.72 6.67,0 8.55,2.09 8.55,7.2l0 36.82 13.77 0 0 -40.05c0,-10.75 -5.43,-15.02 -15.75,-15.02 -6.68,0 -13.04,2.4 -17.63,5.84l-0.52 0 0 -4.8 -13.14 0 0 54.03zm155.87 15.44c19.3,0 27.95,-7.3 27.95,-18.15 0,-10.43 -7.19,-14.19 -17.83,-14.19l-15.02 0c-3.34,0 -4.49,-0.1 -4.49,-2.71 0,-1.15 0.52,-1.56 1.57,-2.5 2.5,0.73 5.21,0.94 8.34,0.94 12.62,0 21.8,-4.91 21.8,-16.48l0 -0.84c0,-3.23 -0.83,-5 -2.61,-7.09l8.14 0 0 -8.45 -18.46 0c-2.71,-0.63 -5.53,-0.94 -8.87,-0.94 -13.14,0 -22.01,5.53 -22.01,16.9l0 0.73c0,6.36 2.51,10.22 6.89,12.83 -4.17,3.23 -6.37,4.9 -6.37,8.97 0,4.07 2.3,6.05 5.64,7.4l0 0.53c-5.64,1.77 -10.12,5 -10.12,10.63 0,8.04 8.03,12.42 25.45,12.42zm-0.21 -9.18c-8.86,0 -11.89,-1.46 -11.89,-5.32 0,-3.34 2.09,-5.11 4.9,-6.05l13.25 0c6.15,0 7.93,0.73 7.93,4.69 0,4.38 -3.55,6.68 -14.19,6.68zm0.73 -35.78c-5.53,0 -8.86,-2.08 -8.86,-8.03l0 -1.25c0,-5.43 3.12,-7.61 8.86,-7.61 5.22,0 8.66,1.66 8.66,7.82l0 1.15c0,5.84 -3.23,7.92 -8.66,7.92zm139.46 29.52l13.56 0 5.84 -17.11 25.45 0 5.94 17.11 15.23 0 -25.13 -71.55 -15.44 0 -25.45 71.55zm31.71 -54.76l0.41 0 9.29 27.12 -18.67 0 8.97 -27.12zm141.48 55.7c7.71,0 12.72,-1.98 16.16,-4.07l0 -9.91c-2.71,1.36 -7.19,3.24 -13.56,3.24 -9.9,0 -14.49,-4.91 -14.49,-16.8l0 -2.08c0,-10.54 5.32,-15.55 14.08,-15.55 6.26,0 9.28,1.05 13.45,2.72l0 -10.33c-3.44,-1.98 -7.72,-3.23 -14.71,-3.23 -15.95,0 -27.01,9.07 -27.01,27.64l0 1.56c0,17.73 9.6,26.81 26.08,26.81zm115.71 0c6.78,0 11.37,-2.19 13.77,-5.32l0.63 0 1.04 4.38 11.16 0 0 -38.7c0,-11.68 -7.41,-16.27 -20.13,-16.27 -7.51,0 -13.56,1.04 -18.88,2.92l0 9.6c3.55,-1.04 8.34,-1.67 13.66,-1.67 8.87,0 11.79,1.56 11.79,8.24l0 3.65 -11.89 1.46c-10.95,1.56 -18.05,6.15 -18.05,16.38 0,10.43 6.99,15.33 16.9,15.33zm4.28 -9.28c-4.49,0 -7.72,-2.09 -7.72,-7.1 0,-5 2.5,-6.88 7.61,-7.4l8.87 -0.94 0 12.52c-1.67,1.66 -5.32,2.92 -8.76,2.92zm130.21 9.28c6.78,0 11.79,-1.98 15.23,-5.22l0.52 0 1.15 4.28 11.68 0 0 -76.25 -13.66 0 0 24.1c-2.4,-1.36 -6.26,-2.92 -12.41,-2.92 -13.98,0 -24.2,8.24 -24.2,28.26l0 1.36c0,19.4 10.85,26.39 21.69,26.39zm5.01 -10.43c-7.62,0 -12.62,-3.55 -12.62,-16.59l0 -1.87c0,-12.83 4.69,-16.8 12.62,-16.8 4.38,0 8.13,0.94 9.91,2.3l0 29.52c-1.88,1.56 -5.22,3.44 -9.91,3.44zm136.79 10.43c9.38,0 15.75,-2.5 19.5,-5.01l0 -8.97c-4.59,1.98 -9.7,3.55 -16.38,3.55 -9.8,0 -15.43,-3.44 -16.37,-13.87l34.63 0 0 -5.01c0,-17.32 -6.89,-26.6 -23.26,-26.6 -14.6,0 -25.35,9.39 -25.35,27.23l0 1.35c0,17.32 9.08,27.33 27.23,27.33zm-2.2 -46.21c6.68,0 10.12,3.55 10.12,13.04l-21.17 0c0.73,-10.22 6.15,-13.04 11.05,-13.04zm109.78 45.27l13.66 0 0 -41.3c3.03,-1.15 6.57,-2.72 10.01,-2.72 5.74,0 7.62,2.19 7.62,7.1l0 36.92 13.77 0 0 -39.11c0,-0.73 0,-1.36 -0.11,-2.09 3.55,-1.46 6.78,-2.82 10.12,-2.82 5.63,0 7.61,2.19 7.61,7.1l0 36.92 13.67 0 0 -40.37c0,-10.53 -5.53,-14.7 -14.92,-14.7 -6.26,0 -12.31,2.29 -17.73,6.05l-0.52 0c-2.61,-4.17 -6.99,-6.05 -13.04,-6.05 -6.47,0 -11.99,2.61 -16.48,6.05l-0.52 0 0 -5.01 -13.14 0 0 54.03zm172.66 15.23c10.54,0 16.69,-6.68 20.24,-17l19.61 -52.26 -13.15 0 -11.99 31.71 -0.42 0 -12.62 -31.71 -14.39 0 20.34 48.5 -1.88 4.8c-1.98,4.59 -3.96,5.63 -8.87,5.63 -1.87,0 -3.86,-0.1 -5.52,-0.62l0 9.28c1.87,1.04 5.73,1.67 8.65,1.67z"/>
 </g>
</svg>
