<?xml version="1.0" encoding="UTF-8"?>
<!DOCTYPE svg PUBLIC "-//W3C//DTD SVG 1.1//EN" "http://www.w3.org/Graphics/SVG/1.1/DTD/svg11.dtd">
<!-- Creator: CorelDRAW -->
<svg xmlns="http://www.w3.org/2000/svg" xml:space="preserve" width="2000px" height="2000px" version="1.1" style="shape-rendering:geometricPrecision; text-rendering:geometricPrecision; image-rendering:optimizeQuality; fill-rule:evenodd; clip-rule:evenodd"
viewBox="0 0 2000 2000"
 xmlns:xlink="http://www.w3.org/1999/xlink">
 <defs>
  <style type="text/css">
    .fil8 {fill:#0B0B0B}
    .fil1 {fill:#2676BA}
    .fil0 {fill:#373C4F}
    .fil4 {fill:#4C4C4C}
    .fil7 {fill:#927255}
    .fil6 {fill:#F15B24}
    .fil3 {fill:#F37C28}
    .fil5 {fill:#F6911D}
    .fil2 {fill:#FDB713}
  </style>
 </defs>
 <g id="Layer_x0020_1">
  <metadata id="CorelCorpID_0Corel-Layer"/>
  <g id="_105553333770944">
   <path class="fil0" d="M868.86 807.39c0,28.71 4.88,45.59 5.52,70.95l4.2 47.24c0.37,7.29 2,15.75 2.91,23.51 1.86,15.88 2.32,32.05 4.67,48.17l7.79 96.48c0.54,6.84 1.95,14.72 2.83,22.2l6.4 72.85c1.13,8.09 1.46,14.27 2.64,22.4 1.14,7.9 0.81,17.69 1.7,24.7 1.98,15.5 3.08,31.03 4.47,46.98 1.35,15.48 2.45,31.83 4.39,47.06l4.74 48.1c1.09,7.63 0.63,17.03 1.53,23.49l7.38 71.87c0.48,9.9 0.48,14.3 1.64,23.38 0.9,7.03 0.57,16.8 1.71,24.71l4.98 47.85 100.09 0c4.5,-19.34 13.57,-150.63 17.82,-185.17 1.17,-9.54 0.78,-17.46 1.84,-27.36 0.82,-7.69 2.16,-17.11 3.4,-25.79 2.35,-16.35 4.2,-58.06 7.15,-80.45l32.14 -346.04c3.24,-30.22 3.44,-62.92 8.5,-93 1.06,-6.31 1.54,-5.33 6.21,-9.09 2.94,-2.37 4.85,-4.21 7.54,-6.35 5.65,-4.49 37.7,-29.25 39.12,-34.57l-346.13 0c1.44,5.4 0.82,3.07 4.91,6.21 3.25,2.49 3.81,3.25 6.53,5.98l33.98 28.58c3.86,3.32 2.36,3.77 7.4,5.11z"/>
   <path class="fil1" d="M1480.5 1025.69l0 588.14c-12.57,6.64 -25.12,12.63 -37.54,19.46l-18.26 9.54c-6.5,3.57 -12.72,6.65 -19.27,9.93l-113.04 59.34c-6.91,3.45 -11.62,5.9 -18.22,9.58l-89.86 46.38c-4.34,2.6 -2.5,-0.07 -4.07,4.27l37.03 -10.23c4.87,-1.33 9.51,-2.34 13.3,-3.38l38.12 -10.54c4.81,-1.57 9.02,-2.23 13.21,-3.47 8.63,-2.56 16.07,-4.12 25.33,-6.64l267.04 -73.55c5.04,-1.18 10.48,-0.76 10.48,-6.2l0 -666c-7.55,0 -7.44,1.39 -13.39,3.28l-77.77 25.11c-4.41,1.31 -9.6,3.3 -13.09,4.98z"/>
   <path class="fil1" d="M393.45 1662.49c7,0.58 52.29,14.23 62.68,16.56l63.22 17.41c4.45,1.25 7.66,1.83 12.22,3.07l89.34 24.65c4.72,1.55 7.22,1.82 12.13,3.16l100.37 27.53c5.37,1.34 7.32,2.4 13,3.68 4.55,1.04 6.92,1.73 12.29,3 5.16,1.22 6.75,2.61 12.85,3.83 6.1,1.22 7.7,2.6 12.86,3.83 5.2,1.24 9.12,2.75 13.56,3.12 -3.27,-4.88 -2.54,-3.29 -8.04,-5.87 -3,-1.4 -5.4,-2.63 -9.32,-4.58l-104.01 -54.47c-2.3,-1.27 -2.36,-1.42 -4.46,-2.48l-100.51 -52.42c-12.02,-6.43 -25.41,-12.11 -37.51,-19.49 -6.57,-4 -12.68,-5.92 -19.31,-9.88l-9.86 -5.44c-6.2,-3.09 -4.28,-3.4 -10.02,-3.87l0 -589.53c-14.12,-3.29 -92.5,-31.78 -101.48,-31.98l0 670.17z"/>
   <path class="fil2" d="M1130.2 1729.23l8.73 -5.17c24.55,-16.37 55.84,-34.22 81.35,-50.72 34.71,-22.44 75.42,-45.91 108.7,-67.86 19.03,-12.55 44.65,-26.92 62.34,-39.13 4.54,-3.13 26.62,-13.76 26.62,-19.26l0 -686.86c0,-7.94 -5.49,-0.87 -8.31,1.37l-89.89 72.81c-7.41,5.54 -4.66,12.9 -4.66,31.49l-0.1 564.4c-1.04,5.79 -28.06,30.65 -34.25,38.05l-26.58 29.03c-10.01,10.99 -27.95,26.84 -35.58,36.72l-39.64 42.38c-1.46,1.6 -0.39,0.41 -2.09,2.08l-15.91 16.06c-5.68,6.17 -29.36,29.46 -30.73,34.61z"/>
   <path class="fil2" d="M846.62 1729.23c-0.5,-6.05 -8.85,-12.01 -16.33,-19.82 -3.23,-3.38 -5.71,-5.73 -9.05,-9.03l-63.48 -67.2c-0.2,-0.2 -0.48,-0.5 -0.68,-0.71l-67.89 -71.13c-3.13,-3.13 -6.17,-5.76 -8.97,-9.1 -22.66,-27.12 -17.09,-5.88 -17.09,-73.28 0,-174.25 -1.4,-351.97 0.01,-525.59 0.14,-16.94 0.96,-12.78 -12.09,-24.05l-19.13 -15.64c-0.21,-0.18 -0.53,-0.44 -0.75,-0.63l-49.85 -40.51c-3.39,-2.53 -7.14,-4.99 -10.27,-7.8 -5.14,-4.62 -4.22,-5.21 -10.79,-8.68l0 652.09c0,11.5 -0.68,25.05 -0.11,36.27 0.46,8.9 9.14,11.85 23.62,20.87l17.2 10.6c3.72,2.64 7.17,4.62 10.99,7.08 4.31,2.79 6.92,3.72 11.25,6.83 4.09,2.93 6.95,3.9 11.3,6.77l127.4 79.74c2.32,1.42 3.68,1.79 6.25,3.48l10.91 7.16c7.65,5.01 14.45,9.1 22.26,13.88l45.29 28.4z"/>
   <path class="fil3" d="M1644.53 1761.21l-152.07 23.09c-21,4.72 -42.99,6.37 -64.03,9.64 -5.77,0.9 -7.6,1.54 -12.67,2.62 -4.91,1.04 -7.83,0.44 -12.77,1.14 -15.49,2.22 -32.13,6.15 -51.55,8.22 -3.8,0.41 -9.01,1.67 -12.83,2.46l-63.08 9.21c-5.23,0.93 -7.42,1.7 -12.64,2.65 -7.2,1.3 -13.16,0.03 -22.79,3.62 -0.3,0.12 -0.72,0.3 -0.99,0.41l506.89 2.29 0 -621.51 -101.47 0 0 556.16z"/>
   <path class="fil3" d="M538.02 1825.46l197.99 -2.28c-2.82,-0.74 -2.94,-0.55 -5.92,-1.03l-140.09 -21.17c-4.29,-0.67 -7.49,-1.55 -11.52,-2.38 -4.78,-0.97 -7.86,-0.84 -13.68,-1.6l-88.49 -14.39c-5.13,-0.92 -8.84,-0.26 -13.95,-1.34l-26.4 -4.18c-21.52,-4.52 -56.65,-7.83 -75.77,-11.81 -5.93,-1.23 -20.38,-4.23 -26.51,-3.29 -3.91,-6.01 -1.86,-62.04 -1.86,-68.91 0,-161.5 -1.28,-326.05 0.03,-486.79l-99.61 0.01 0.01 619.12 305.77 0.04z"/>
   <path class="fil2" d="M803.52 352.73c0,7.9 -1.69,7.4 17.12,2.85l8.52 -3.73c5.88,2.59 3.76,2.25 14.14,-0.1 11.74,-2.66 4.77,-0.01 12.31,-4.09 1.4,-0.75 1.69,-1.02 4.08,-1.69l21.7 -4.85c6.07,0.39 4.2,1.2 4.48,1.29 3.12,1.03 -2.33,0.96 3.61,0.93 5.27,-0.02 6.16,-2.69 6.17,-2.69 3.41,-3.17 0.22,-3.48 20.48,-7.81 9.37,-2 36.92,-9.93 45.24,-9.93 2.57,-4.4 0.44,-4.58 5.67,-7.13l1.99 -0.78c4.69,-1.66 9.63,-1.36 12.43,3.22 14.88,-11.7 30.34,-29.11 42.75,-42.3 14.99,-15.92 35.43,-51.94 41.47,-72.53 7.44,-25.32 9.21,-48.49 2.17,-73.33 -9.18,-32.39 -34.9,-60.95 -61.16,-80.65 -3.85,-2.89 -14.04,-10.56 -18.28,-10.91 12.19,18.22 13.33,27.59 7.53,50.63l-7.93 21.28c-0.13,0.29 -0.29,0.66 -0.43,0.95 -0.14,0.29 -0.33,0.64 -0.47,0.92l-12.4 20.97c-2.27,3.27 -3.9,5.29 -6.31,8.98l-22.57 27.48c-0.26,0.31 -1,1.21 -1.26,1.52 -0.19,0.22 -1.85,2.14 -1.94,2.24l-37.26 36.41c-3.74,3.55 -4.87,4.47 -9.11,7.58l-49.24 49.46c-14.89,20.14 -14.78,18.28 -26.39,38.96 -4.34,7.72 -6.95,13.05 -10.36,21.62l-6.52 18.61c-1.44,5.89 -2.76,-0.92 -0.23,6.62z"/>
   <path class="fil2" d="M981.45 395.83c0.04,6.41 10,5.44 19.86,10.53l17.6 3.74c7.92,1.98 1.09,3.24 13.43,5.11 15.31,2.33 -1.18,1.83 13.06,0.93l0.98 2.46c0.3,0.8 -0.19,0.82 1.08,2.95 5.15,0.1 11.58,1.29 15.25,2.86 -3.07,3.07 2.25,2.08 -6.03,2.46 -5.28,0.25 1.12,-0.91 -6.34,-1.14 5.45,0.02 10.41,4.56 15.48,4.72 19.59,0.63 49.44,10.79 49.47,10.8 0.58,0.05 0.08,-0.03 2.81,-0.5 3.07,-0.53 2.15,-0.32 5.14,-0.42 2.45,-0.06 1.35,0.93 5.41,-4.25 21.19,-27.09 37.89,-49.27 46.87,-85.29 4.43,-17.78 3.86,-25.51 3.38,-45.39 -0.5,-21.14 -16.24,-50.42 -29.65,-66.28 -3.77,-4.46 -7.65,-7.49 -11.69,-11.94l-8.24 -8.44c-6.33,-5.8 -25.2,-21.18 -32.49,-23.13 1.13,4.23 11,14.25 9.58,31.74 -1.8,22.2 -10.62,42.79 -23.08,60.43l-57.39 66.34 -43.37 38.59c-1.84,2.89 -1.05,0.33 -1.12,3.12z"/>
   <path class="fil4" d="M953.66 1652.04c0,18.44 -21.87,81.63 -34.72,105.04 -1.59,2.91 -1.95,3.18 -2.82,6.91l56.8 122.56c1.28,3.42 12.8,35.97 11.84,39.49l-3.3 5.68c8.48,-6.7 5.46,-13.42 5.46,-34.25l-0.01 -118.19c-4.53,-4.48 -9.94,-4.45 -10.52,-12.77 -1.12,-16.18 23.46,-18.48 24.64,-2.43 0.3,4.06 -0.79,7.43 -2.79,9.73 -0.81,0.93 -2.09,1.77 -3.11,2.48 -0.35,0.24 -1.44,0.9 -1.79,1.13l-2.74 1.86c0.11,27.5 1.22,124.37 -0.8,144.61 3.48,-1.46 2.61,1.09 5.29,-10.03 1.37,-5.69 2.08,-5.19 3.79,-10.08 10.57,-30.15 23.15,-65.05 37.87,-92.83 1.92,-3.64 3.42,-6.17 5.27,-10.02 5.41,-11.21 13.84,-29.03 20.06,-38.33 -1.47,-2.2 -2.04,-2.37 -3.44,-4.9 -16.51,-29.72 -24.68,-59.63 -31.94,-91.8 -1.49,-6.62 -3.4,-8.99 -3.54,-16.85l-54.23 0.58c-2.05,-0.03 -6.59,-0.27 -8.36,-0.11l-6.91 2.52z"/>
   <path class="fil5" d="M803.52 352.73c-3.59,2.84 -1.57,0.3 -2.94,5.45 -0.02,0.07 -0.83,5.9 -0.85,6.07 -4.51,30.39 -0.96,54.52 11.53,82.24l15.13 25.19c8.87,11.32 21.63,28.4 34.13,36.78 -3.21,-13.8 -7.96,-14.37 1.02,-39.31 1.83,-5.09 1.09,-2.89 3.01,-6.72 8.2,-16.34 20.53,-37.92 32,-51.42 0.18,-0.22 0.46,-0.52 0.64,-0.74 1.11,-1.32 1.55,-1.89 2.47,-3.1 11.57,-15.16 20.06,-23.8 32.09,-37.42 3.91,-4.42 5.31,-6.72 9.74,-11.11 7.08,-7.03 13.1,-13.1 20.16,-20.16 6.06,-6.06 15.1,-14.04 19.81,-20.26 -2.8,-4.58 -7.74,-4.88 -12.43,-3.22l-1.99 0.78c-5.23,2.55 -3.1,2.73 -5.67,7.13 -8.32,0 -35.87,7.93 -45.24,9.93 -20.26,4.33 -17.07,4.64 -20.48,7.81 -0.01,0 -0.9,2.67 -6.17,2.69 -5.94,0.03 -0.49,0.1 -3.61,-0.93 -0.28,-0.09 1.59,-0.9 -4.48,-1.29l-21.7 4.85c-2.39,0.67 -2.68,0.94 -4.08,1.69 -7.54,4.08 -0.57,1.43 -12.31,4.09 -10.38,2.35 -8.26,2.69 -14.14,0.1l-8.52 3.73c-18.81,4.55 -17.12,5.05 -17.12,-2.85z"/>
   <path class="fil3" d="M910.56 512.63l-1.83 4.16c5.34,-0.13 10.98,-0.18 15.81,0.01l19.74 5.27c15.03,5.35 15.96,3.3 17.63,7.24 -7.02,0.16 -3.77,-1.24 -6.79,2.71l5.15 3.15c0.25,0.16 0.57,0.39 0.83,0.54 1.94,1.1 5.98,2.5 7.92,3.18 4.69,1.68 10.57,3.46 15.88,4.96 6.57,1.86 10.18,3.78 15.96,4.97 7.1,1.47 7.66,-0.53 11.09,2.56 0.19,0.17 0.46,0.52 0.64,0.69l2.23 2.31c13.3,-20.21 36.85,-39.6 53.2,-57.96 3.61,-4.05 1.71,-0.91 3.79,-6.03l-4.17 0.02c-0.59,-1 -0.63,-1.75 -0.97,-3.1 -2.08,-8.03 2.84,5.42 -0.51,-2.41l-24.17 -6.45c-7.29,-2.72 -8.07,-0.97 -13.31,-0.55 -0.62,-5.7 0.43,-3.54 -4.4,-5.27 -5.79,-2.07 -17.09,-5.39 -21.97,-3.07l-1.73 -2.79c-1.09,-0.91 -1.42,-1.06 -3.33,-1.74 -4.11,-1.45 -4.66,-0.84 -8.67,-2.59 -16.93,-7.4 -19.94,-4.95 -25.26,-8.05 -8.16,-4.77 -6.15,-1.25 -14.48,-3.77 -9.39,-2.84 -4.05,-3.19 -10.74,0.71l1.65 -5.44c-3.25,2.04 -1.56,0.57 -3.82,3.06 -2.72,2.99 -0.15,-0.19 -2.28,3.42l-12.58 23.49c-3.27,7.88 -13.45,28 -10.51,36.77z"/>
   <path class="fil5" d="M939.75 445.89l-1.65 5.44c6.69,-3.9 1.35,-3.55 10.74,-0.71 8.33,2.52 6.32,-1 14.48,3.77 5.32,3.1 8.33,0.65 25.26,8.05 4.01,1.75 4.56,1.14 8.67,2.59 1.91,0.68 2.24,0.83 3.33,1.74l1.73 2.79c4.88,-2.32 16.18,1 21.97,3.07 4.83,1.73 3.78,-0.43 4.4,5.27 5.24,-0.42 6.02,-2.17 13.31,0.55l24.17 6.45c3.35,7.83 -1.57,-5.62 0.51,2.41 0.34,1.35 0.38,2.1 0.97,3.1l4.17 -0.02c2.78,-0.07 0.27,0.77 3.12,-1.13l41.72 -40.21c5.01,-4.85 4.65,-3.93 6.59,-8.72 -2.99,0.1 -2.07,-0.11 -5.14,0.42 -2.73,0.47 -2.23,0.55 -2.81,0.5 -0.03,-0.01 -29.88,-10.17 -49.47,-10.8 -5.07,-0.16 -10.03,-4.7 -15.48,-4.72 7.46,0.23 1.06,1.39 6.34,1.14 8.28,-0.38 2.96,0.61 6.03,-2.46 -3.67,-1.57 -10.1,-2.76 -15.25,-2.86 -1.27,-2.13 -0.78,-2.15 -1.08,-2.95l-0.98 -2.46c-14.24,0.9 2.25,1.4 -13.06,-0.93 -12.34,-1.87 -5.51,-3.13 -13.43,-5.11l-17.6 -3.74c-9.86,-5.09 -19.82,-4.12 -19.86,-10.53 -8.44,3.44 -17.92,17.02 -23.42,23.84 -3.62,4.5 -6.6,6.91 -10.14,12.11 -1.92,2.81 -2.15,3.89 -4.44,6.73 -1.37,1.69 -1.69,1.54 -2.57,3 -3.32,5.51 -1.36,0.73 -1.13,4.38z"/>
   <path class="fil6" d="M1014.82 554.38l-2.23 -2.31c-0.18,-0.17 -0.45,-0.52 -0.64,-0.69 -3.43,-3.09 -3.99,-1.09 -11.09,-2.56 -5.78,-1.19 -9.39,-3.11 -15.96,-4.97 -5.31,-1.5 -11.19,-3.28 -15.88,-4.96 -1.94,-0.68 -5.98,-2.08 -7.92,-3.18 -0.26,-0.15 -0.58,-0.38 -0.83,-0.54l-5.15 -3.15c3.02,-3.95 -0.23,-2.55 6.79,-2.71 -1.67,-3.94 -2.6,-1.89 -17.63,-7.24l-19.74 -5.27c-4.83,-0.19 -10.47,-0.14 -15.81,-0.01l1.83 -4.16c-6.6,5.21 -3.08,12.12 -4.76,23.05 -3.96,25.82 8.06,63.82 23.02,85.21 2.08,2.97 3.31,5.71 5.35,8.56 6.41,8.94 25.6,30.91 33.39,36.12 -0.54,-6.46 -0.77,-2.2 -2.13,-7.6 -7.29,-28.88 23.2,-69.46 40.05,-92.12 3.27,-4.38 6.8,-7.75 9.34,-11.47z"/>
   <path class="fil0" d="M953.66 1652.04l6.91 -2.52c1.77,-0.16 6.31,0.08 8.36,0.11l54.23 -0.58c10.21,2.63 15.67,-1.77 16.58,-10.3 0.46,-4.27 0.68,-23.74 0.24,-27.85 -0.68,-6.44 -1.6,-5.53 -8.32,-5.58l-85.08 0.04c-7.73,-0.08 -9.02,-1.3 -9.75,5.54 -0.92,8.67 -2.36,30.68 5.38,36.61 4.64,3.55 7.87,1.16 11.45,4.53z"/>
   <path class="fil7" d="M538.02 1825.46l-305.77 -0.04 -0.01 -619.12 99.61 -0.01c-1.31,160.74 -0.03,325.29 -0.03,486.79 0,6.87 -2.05,62.9 1.86,68.91l0 -556.94 -102.87 0 0 621.51 298.96 0.07c4.74,-0.03 5.02,0.45 8.25,-1.17z"/>
   <path class="fil8" d="M981.46 1931.72c0,5.19 -0.31,5.18 3.17,8.42 0.21,0.19 0.59,0.47 0.78,0.63 0.19,0.17 0.64,0.48 0.8,0.61 0.16,0.12 0.55,0.36 0.81,0.58 4.31,-1 4.02,-1.77 8.34,-2.78 0,-14.44 1.35,-7.51 -5.56,-15.29 2.02,-20.24 0.91,-117.11 0.8,-144.61l2.74 -1.86c0.35,-0.23 1.44,-0.89 1.79,-1.13 1.02,-0.71 2.3,-1.55 3.11,-2.48 2,-2.3 3.09,-5.67 2.79,-9.73 -1.18,-16.05 -25.76,-13.75 -24.64,2.43 0.58,8.32 5.99,8.29 10.52,12.77l0.01 118.19c0,20.83 3.02,27.55 -5.46,34.25z"/>
  </g>
 </g>
</svg>
